<svg width="25" height="24" viewBox="0 0 25 24" fill="none" xmlns="http://www.w3.org/2000/svg">
<path fill-rule="evenodd" clip-rule="evenodd" d="M9.80892 4.72641C10.3246 5.10871 10.6212 5.67879 10.6212 6.29047C10.6212 11.221 10.7975 12.5478 11.5181 13.0527C11.9909 13.3822 12.6388 13.3788 14.822 13.3214C15.8368 13.2933 17.1362 13.2573 18.8382 13.2573C19.5171 13.2573 20.1567 13.5317 20.5903 14.0096C20.9928 14.4537 21.1691 15.0339 21.0762 15.6051C20.2806 20.4682 15.8976 24 10.6546 24C4.8375 24 0.105469 19.5327 0.105469 14.0422C0.105469 9.68845 3.59285 5.33472 7.87943 4.33849C8.5488 4.18444 9.26819 4.32837 9.80892 4.72641ZM8.42135 5.96327C8.38324 5.96327 8.34513 5.96776 8.30701 5.97676C4.76961 6.79871 1.89204 10.4171 1.89204 14.0422C1.89204 18.6028 5.82249 22.3134 10.6546 22.3134C15.0102 22.3134 18.6501 19.3843 19.3099 15.3476C19.3147 15.3139 19.3313 15.2161 19.2337 15.107C19.1408 15.0047 18.9931 14.944 18.8382 14.944C17.1577 14.944 15.8749 14.9799 14.8733 15.0069C12.4483 15.0755 11.4454 15.1014 10.4545 14.4076C9.03749 13.4166 8.85119 11.7506 8.83581 7.07536L8.83465 6.29047C8.83465 6.19602 8.79177 6.11731 8.70601 6.05434C8.62621 5.99475 8.52498 5.96327 8.42135 5.96327ZM21.6043 3.07386C23.6982 5.04946 25.0274 7.64573 24.9893 9.68879C24.975 10.486 24.3616 11.1517 23.5326 11.2697C21.9152 11.5002 20.0214 11.5699 18.3456 11.5699C16.7854 11.5699 15.4121 11.5103 14.6224 11.4676C13.6291 11.4125 12.8382 10.6648 12.7811 9.72702C12.6882 8.24054 12.4869 4.46364 12.6298 1.54241C12.6691 0.693473 13.3956 0.0177 14.2842 0.00308265C16.8294 -0.0666311 19.4557 1.04879 21.6043 3.07386ZM14.4366 1.68858H14.4104C14.2794 4.52098 14.4735 8.17983 14.5641 9.6292C14.5688 9.71578 14.6355 9.77874 14.726 9.78324C15.9504 9.84958 20.1691 10.034 23.2027 9.61233C23.2099 8.03365 22.0653 5.89277 20.3418 4.26686C18.5743 2.60048 16.4828 1.68858 14.4366 1.68858Z" fill="#676767"/>
</svg>
