<svg width="25" height="24" viewBox="0 0 25 24" fill="none" xmlns="http://www.w3.org/2000/svg">
<path fill-rule="evenodd" clip-rule="evenodd" d="M9.45061 1.5C7.38459 1.5 5.40318 2.2916 3.94228 3.70065C2.48138 5.10971 1.66066 7.0208 1.66066 9.0135C1.66066 11.0062 2.48138 12.9173 3.94228 14.3263C5.40318 15.7354 7.38459 16.527 9.45061 16.527V18.027C6.97213 18.027 4.59515 17.0774 2.8426 15.387C1.09004 13.6966 0.105469 11.404 0.105469 9.0135C0.105469 6.62297 1.09004 4.33035 2.8426 2.63999C4.59515 0.949634 6.97213 1.24824e-07 9.45061 1.24824e-07V1.5ZM17.2421 9.0135C17.2421 8.02669 17.0406 7.04954 16.649 6.13786C16.2574 5.22618 15.6835 4.39784 14.9599 3.70012C14.2364 3.00241 13.3775 2.449 12.4322 2.0715C11.4869 1.694 10.4737 1.4998 9.45061 1.5V1.24824e-07C10.678 -0.000196879 11.8933 0.232799 13.0273 0.685681C14.1613 1.13856 15.1917 1.80246 16.0596 2.63946C16.9276 3.47646 17.6161 4.47017 18.0858 5.56384C18.5555 6.6575 18.7973 7.8297 18.7973 9.0135H17.2421ZM11.0058 9.7635L10.2282 10.5135V23.25L11.0058 24H24.2125L24.9901 23.25V10.512L24.2125 9.762H11.0042L11.0058 9.7635ZM11.7834 22.5015V11.262H23.4349V22.5015H11.7834Z" fill="#676767"/>
</svg>
