<svg width="182" height="4" viewBox="0 0 182 4" fill="none" xmlns="http://www.w3.org/2000/svg">
<g clip-path="url(#clip0_168_583)">
<path d="M0 0V4.3L0.1 4.1H0.4C0.6 4.2 0.7 4 0.9 4H1.1C1.3 4 1.5 4.1 1.7 4.1H1.9L2.1 4C2.2 4 2.4 3.9 2.5 3.9H5.9L6 3.8V3.7H6.1C6.1 3.7 6.2 3.7 6.2 3.6L6.3 3.5H6.6C6.9 3.5 7.3 3.5 7.6 3.3L8 3.1C8.2 3.1 8.3 3 8.5 3L8.7 2.9L8.9 2.7L9 2.6H9.5C9.6 2.6 9.7 2.5 9.8 2.5H10.7C11.3 3 12.1 3.1 13 3C14.2 2.8 14.7 2.2 16.5 2.2C18.2 2.5 20.9 2.2 23.6 2.5C24.8 2.7 25.9 2.9 27.1 3C28.8 2.8 30.7 2.7 32.4 2.5C33.5 2.5 33.8 3 35.3 3C37.4 2.9 38 2.1 40 1.9C43.2 2.2 44 2 47.1 2.2C47 2.7 47.8 2.7 48.3 3C48.5 3.1 48.1 3.4 48.3 3.5C48.5 3.6 49.6 3.5 49.5 3.8C52.6 3.8 54.9 2.6 57.7 2.2C58.8 2 60 2.3 61.2 2.2C62.7 2.1 63.2 1.6 64.7 1.4C65 1.8 65.4 2 65.9 2.2C66.1 1.9 66.9 1.6 67.1 1.9C68.3 1.9 67.9 1.2 69.4 1.4C70.6 2.2 71.8 1.4 73.5 1.9C74.8 1.3 76.2 1.1 77.6 1.1C77.7 1.5 77.4 2.1 78.2 2.2C79.5 1.5 79.8 1.8 80.5 2.2C82.7 1.3 85.8 1.5 88.1 1.4C88.7 1.4 88.5 1.2 88.7 1.1C89.1 1.1 89.5 1.2 89.9 1.4C90.5 1.4 90.2 1.2 90.5 1.1C90.9 1.1 91.3 1.2 91.7 1.4L94.1 1.1C95.4 1.1 96.8 1.5 98.2 1.1C99 1.5 101.6 2 100 2.7C101.6 2.6 103.1 2.6 104.7 2.7C105.1 2.7 105.4 3 105.3 3C105.9 3 106.5 2.9 107.1 2.7C107.9 2.7 108.7 2.8 109.5 3C109.3 3 110 2.7 110.1 2.7H110.7C110.9 2.7 111.1 2.6 111.3 2.4C112.1 2.4 112.9 2.5 113.6 2.7C113.7 2.7 113.5 2.2 113.6 2.2C114.4 2.1 115.2 2.1 116 2.2C116.8 2.3 117.6 2.3 118.3 2.2C119.6 2.2 121.2 1.9 122.4 1.9C123.1 1.9 123.3 2.2 124.2 2.2C126.2 2.2 125.6 1.7 126.5 2.2C127.3 2.4 128.1 2.4 128.9 2.5C130 2.5 130.2 2.2 131.2 2.2C132 2.2 132 2.5 133 2.5C133.6 2.5 134 2.3 134.8 2.2C137.9 1.9 141.1 1.8 144.2 1.9C145.2 2 145.4 2.2 146.5 2.2C147.6 2.2 148.8 1.7 150 1.7C151.4 1.6 152.8 1.7 154.2 1.9C154.9 1.2 158.3 1.6 158.3 1.6C158.5 1.6 158.3 1.3 158.9 1.3C161.7 1.2 163.3 1.9 164.8 1.3C165.6 1.3 165.3 1.8 166 1.8C166.2 1.4 167.3 1.6 167.8 1.8C168.6 0.9 173.7 1.3 175.4 1.3C175.7 1.3 176.1 1 176 1C176.6 1 176.7 1.3 177.2 1.3C178.1 1.3 177.8 1 178.4 1.3C179.4 1.4 180.4 1.4 181.3 1.3C182.8 1.3 184.4 1.1 185.9 1H188.2C188.4 1 188.7 1 188.9 1.1C189.6 1.5 190.4 1.9 191.2 2.2C193 1.8 193.5 2.3 194.7 1.9C195.3 2.1 194.9 2.9 196.5 2.7C198.4 2.9 198.3 2.3 199.4 2.2C201 2.9 204.3 2.1 205.9 1.9C206.1 2.3 207.2 2.2 207.7 2.4C207.5 1.8 208.4 2 209.5 1.9C210.8 1.8 212.7 1.5 214.2 1.4C215 1.5 214.9 2 215.4 2.2C218.5 1.7 221.7 1.7 224.8 2.2C225.6 2.1 225.5 1.6 226 1.4C226.8 1.5 227.6 1.4 228.4 1.1C228.4 1.8 230 1.8 230.7 2.2C232.4 2.2 234.1 2.5 236 2.5C236.6 2.5 236.6 2.3 237.2 2.2C237.8 2.1 238.4 2.2 239 2.2C239.5 2.2 239.8 1.9 240.2 1.9C240 1.9 240.6 2.2 240.8 2.2C242.5 2.4 244.3 1.6 246.1 1.9C246.3 1.9 246.4 2.4 246.7 2.4C247.4 2.5 247.9 1.9 249 2.1C249 2.5 250.1 2.2 250.8 2.4C251.3 2.5 251.4 3.1 252.6 2.9C254 2.6 256.8 2 258.5 2.6C259.3 1.8 262.2 1.8 263.8 1.8C264 1.8 264.2 1.9 264.4 2.1C265.5 2.2 267.1 2 267.9 2.1C269 2.2 269.2 2.6 270.3 2.6C272.3 2.6 274.2 2.6 276.2 2.3C276.8 2.2 277.4 2.2 278 2.3C280.2 2.5 279.3 1.9 280.4 1.8C281.2 2 280.5 2.8 281.6 2.9C282.9 2.3 285.4 2.1 288.1 2.1C288.9 2 288.4 2.5 288.7 2.6C289.2 2.8 290.5 2.5 290.5 2.9C291.3 2.9 292.1 2.7 292.8 2.4H294C295 2.4 296 2.2 296.9 1.9C298.8 1.5 298.9 1.9 300.4 1.9C301.2 1.9 301.5 1.5 302.7 1.6C302.8 1.6 303.6 1.9 303.3 1.9C304.3 1.9 305.5 1.4 306.8 1.6C307.7 1.8 307.3 2 308.6 2.1H309.2C309.4 2.1 309.6 2 309.8 1.8C310.8 1.8 310.7 2.3 311.6 1.8C312.3 1.4 314 2.1 314.5 2.1C314.2 2.1 315.1 1.8 315.1 1.8L316.3 1.5C318 2 319.8 2.3 321.6 2.3C322.1 2.3 322.5 2 322.8 2C323.1 2.1 322.7 2.6 323.4 2.5C323.3 2.5 323.5 2.4 323.5 2.4C323.8 2.3 324.1 2.2 324.4 2.2C324.6 2.2 324.7 2.1 324.9 2.1C325.2 2.1 325.4 2.2 325.5 2.3C325.7 2.4 326 2.4 326 2.5C326.1 2.5 326.1 2.7 326.2 2.8C326.3 2.9 326.4 2.9 326.5 3C326.6 3.2 326.7 3.4 326.9 3.4C327.1 3.4 327.3 3.3 327.5 3.3C327.7 3.3 327.9 3.1 328.1 3.1C328.4 3 328.8 3.2 329.1 3.1L330.3 2.9C331.4 2.7 332 3 332.6 2.6C332.8 2.5 333.6 2.6 333.8 2.6C334.3 2.3 335 2.2 335.6 2.3C336.7 2.3 337.4 2.7 338.5 2.8C339.1 2.8 339 2.5 339.1 2.5C339.6 2.5 339.6 2.8 339.7 2.8C341 2.8 342.7 2.9 343.2 2.8C343.4 2.8 344 2.5 343.8 2.5C345.8 2.4 345.2 3 346.2 2.5C347.2 2.3 348.2 2.2 349.1 2.2C350.3 2 350.8 1.8 352 1.7C353.2 1.6 354.6 1.8 356.1 1.7C356.7 1.7 356.8 1.4 357.3 1.4C359.4 1.2 359.5 1.7 360.8 1.7C362 2 363 2.5 363.7 2.8C364 2.9 364.4 3 364.7 3L365.6 3.3C366.1 3.4 366.5 3.4 367 3.4C367.5 3.4 367.8 3 368.3 3H369.3C369.9 3.1 370.6 3.2 371.2 3.4C371.7 3.5 372.2 3.5 372.7 3.3L373.8 3C374.1 2.9 374.4 2.9 374.7 2.9C375.1 2.8 375.5 2.8 376 2.7C376.1 2.6 376.3 2.6 376.5 2.7C376.7 2.8 376.8 3 377 3.2C377.2 3.4 377.4 3.6 377.6 3.7C377.7 3.8 377.8 3.9 378 4C378.2 4.1 378.4 4.1 378.5 4.2C378.7 4.3 379 4.3 379.3 4.3C379.7 4.3 380.1 4.2 380.5 4.2C380.7 4.2 380.9 4.2 381 4.1C381.1 4 381.1 3.8 381.2 3.8C381.3 3.8 381.4 4 381.6 3.9C381.8 3.8 381.6 3.5 381.8 3.5C382 3.5 382 3.6 382.3 3.6C382.6 3.6 382.9 3.7 383.2 3.7C383.3 3.7 383.5 3.8 383.6 3.7C383.7 3.6 383.7 3.5 383.8 3.4C384.1 3.1 384.4 3 384.8 3C385.2 3 385.6 3 385.9 3.1C386.1 3.2 386.2 3.2 386.4 3.2C386.8 3.1 387.2 2.9 387.6 2.8C388.2 2.7 388.7 2.6 389.3 2.6C389.7 2.5 390.1 2.6 390.4 2.5H390.9C391.1 2.5 391.7 2.6 391.8 2.7V3C391.8 3.2 391.7 3.4 391.9 3.6C392 3.7 392.2 3.8 392.4 3.8C392.7 3.8 392.9 3.9 393.2 4C393.4 4.1 394 4.2 394.1 4.2C394.2 4.2 394.3 4 394.5 4C394.7 3.9 394.9 3.9 395.1 3.8H395.7C396 3.9 396.2 4.1 396.6 4.1C396.8 4.1 397 4.1 397.2 3.9L397.8 3.6L398.7 3C399 2.8 399.3 2.7 399.6 2.7H400.3L401.3 2.8C402.2 2.9 403.1 2.8 403.9 2.5C404.2 2.3 404.5 2.2 404.8 2H405.3C405.5 2 405.7 1.9 406 1.9C406.4 1.9 406.8 1.8 407.3 1.8C407.6 1.8 407.9 1.9 408.2 2C408.8 2 409.3 2 409.9 1.9C410.6 1.8 411.3 1.8 412 1.9H414C414.5 1.9 415 2 415.5 2C416.1 2.1 416.6 2.3 417.1 2.5C417.3 2.5 417.5 2.6 417.7 2.6H419.3C419.5 2.7 419.5 2.7 419.7 2.6C419.8 2.5 419.9 2.4 420 2.4C420.2 2.3 420.2 2.4 420.4 2.5C420.7 2.7 421 2.7 421.3 2.6C421.4 2.5 421.4 2.5 421.4 2.4C421.4 2.3 421.4 2.3 421.5 2.3C421.8 2.1 422.2 2.3 422.4 2.6C422.5 2.8 422.5 3 422.6 3.1C422.7 3.2 422.6 3.2 422.7 3.2L423.1 3.3L423.6 3.4C423.9 3.4 424.2 3.5 424.5 3.7C424.7 3.9 424.7 4 425 4C425.2 4 425.4 3.9 425.6 3.9C425.8 3.9 425.8 4 426.1 4C426.4 4 426.8 3.9 427.1 4C427.3 4 427.4 4.1 427.6 4.1C427.8 4.1 428 4.2 428.2 4.1C429.3 4 430 3.8 431.2 3.8C432.1 3.8 433.1 4 434.1 4.1C435.5 4.2 436.9 4.2 438.4 4.2H440.2C440.5 4.2 440.8 4.2 441.1 4.3C441.3 4.4 441.4 4.5 441.6 4.5C441.9 4.5 442.2 4.6 442.5 4.6H443.3C443.5 4.6 443.7 4.6 443.9 4.5C444 4.5 444 4.4 444.1 4.3C444.2 4.2 444.2 4.2 444.4 4.2C444.6 4.2 444.8 4.1 445 4.1C445.5 4 446.1 4.1 446.5 4C446.9 4 447.2 4 447.5 3.7L447.8 3.4C447.9 3.3 447.9 3.2 448 3.2H448.3C448.4 3.2 448.6 3.1 448.7 3.1H449.8C450 3.1 450.2 3 450.4 3H450.7C450.7 3 450.8 3 450.8 2.9C450.9 2.9 451.1 3 451.2 3C451.5 3.1 451.8 3.1 452.1 3.2C452.2 3.2 452.3 3.3 452.3 3.3C452.5 3.3 452.7 3.3 452.9 3.2C453.1 3.1 453.2 3.1 453.4 3.1C453.5 3.1 453.7 3.1 453.8 3.2C454.1 3.3 454.4 3.3 454.7 3.2C455.5 3.1 456.3 3.1 457.1 3.3C457.2 3.3 457.3 3.4 457.4 3.4C457.5 3.4 457.5 3.6 457.6 3.6H458.7C459 3.6 459.3 3.8 459.6 3.8C459.8 3.8 459.9 3.7 460 3.7H460.4C460.9 3.8 461.5 3.8 462.1 3.9C462.5 4 463 4 463.4 3.9C463.7 3.8 463.9 3.7 464.2 3.6C464.7 3.5 465.1 3.5 465.6 3.4H470C470.9 3.3 471.9 3.5 472.9 3.4C473.7 3.3 474.5 3.2 475.2 3.1C476.4 3.1 476.2 3.5 477.6 3.6C477.3 3.6 478.1 3.3 478.2 3.3C481 3 479.8 4.2 481.1 3.6C482.7 2.9 483 4.2 484 3.6C484.3 3.4 484.7 3.9 484.6 3.9C487.3 4.1 490.1 4.1 492.8 3.9C493.8 3.8 494.8 3.9 495.8 3.9C496.2 3.9 495.8 3.6 496.4 3.9C496.7 4.1 497.1 3.6 497 3.6C498.1 3.6 498.3 3.9 499.3 3.9C499.1 3.9 499.7 3.6 499.9 3.6C502 3.3 503.4 4 504.6 4.1C508 4.3 509 3.6 511.1 3.6C513.1 3.6 514.9 3.8 517 3.9C519 4 520.8 3.8 522.9 3.9C523.7 3.9 523.6 4.1 524.7 4.2C525.8 4.3 526.8 3.8 527.8 4C528.5 4.1 529.1 4.1 529.8 4C530.3 3.9 530.8 3.8 531.3 3.6L531.9 3.3C532.6 3 533.4 2.9 534.1 2.9L536 2.8C536.3 2.8 536.6 2.8 536.8 2.7L537.4 2.4C537.6 2.3 537.8 2.2 538 2.2C538.2 2.2 538.4 2.4 538.6 2.5C538.8 2.6 539 2.6 539.3 2.6H539.8C540 2.5 540.2 2.4 540.3 2.3C540.5 2.2 540.8 2.2 541 2.2C541.2 2.2 541.3 2.1 541.5 2.1H545.7C546 2.1 546.2 2 546.5 2C546.6 2 546.6 1.9 546.8 2C547.1 2.1 547.3 2.5 547.6 2.6H547.8C548 2.6 548.2 2.6 548.3 2.7C548.5 2.8 548.7 2.7 548.8 2.8C549.1 2.9 549.4 3 549.6 3.1H549.9C550 3.1 550 3.3 550.1 3.3C550.5 3.5 551 3.1 551.3 3.1C553.5 3.1 555.6 3.3 557.8 3.6C558.8 3.7 560.6 3.8 561.9 3.9C562.5 3.8 563.1 3.8 563.7 3.6C564.2 3.6 564.8 4.2 564.9 3.9C565 3.6 566.3 3.6 566.7 3.4C566.6 3.5 566.8 3.6 566.8 3.6C567 3.7 567.2 3.7 567.3 3.7H568.3C568.5 3.8 568.5 3.9 568.6 4C568.8 4.1 569.1 4.1 569.2 4.1C569.3 4.1 569.4 4.2 569.4 4.2C569.4 4.3 569.3 4.4 569.4 4.5H569.9C570.1 4.5 570.3 4.5 570.5 4.4C570.7 4.3 570.8 4.4 570.9 4.3C571 4.3 571 4.1 571.1 4.1C571.2 4.1 571.3 4 571.3 4C571.4 4 571.6 4.1 571.7 4.1C571.9 4.2 572.1 4.2 572.3 4.2C572.7 4.2 573 4.1 573.4 4.1C573.6 4.1 574 4.2 574.2 4C574.3 3.8 574.2 3.6 574 3.6C574.1 3.4 574.4 3.5 574.6 3.5C574.9 3.6 575.2 3.7 575.5 3.7C575.7 3.6 575.8 3.4 575.8 3.3C575.8 3.2 575.7 3.2 575.6 3.1C575.6 3 575.6 2.8 575.7 2.8C575.8 2.8 576.2 2.9 576.2 2.8V2.5C576.2 2.4 576.2 2.3 576.3 2.3C576.4 2.3 576.5 2.4 576.6 2.4H577C577.2 2.4 577.2 2.2 577.3 2.2C577.5 2.1 577.7 2.1 577.9 2.2C578.1 2.2 578.3 2.3 578.5 2.4C578.6 2.4 578.7 2.5 578.8 2.6C579.1 2.8 579.5 2.8 579.8 2.7C579.9 2.6 580.1 2.6 580.3 2.6C580.5 2.6 580.5 2.6 580.5 2.4C580.5 2.3 580.5 2.1 580.6 2C580.8 1.8 580.8 1.9 581.1 2.1C581.4 2.3 581.8 2.2 582.1 2.2C583.1 2.4 584.2 2.4 585.3 2.4H586.6C586.8 2.4 587.1 2.3 587.2 2.1C587.8 2.1 587.9 2.4 588.4 2.4C589.2 2.4 589.2 2 590.2 2.1C590.2 2.6 591.7 2.2 592.5 2.4C593.4 2.5 593.8 3.1 594.8 2.9C594.9 2.7 594.8 2.4 595.4 2.4C596.6 3.1 600.3 3.1 601.9 2.9C603.4 3.7 606.7 3.5 608.4 3.7C608.6 3.7 609.2 4 609 4C610.6 4 612 3.5 613.7 3.7C615.1 4.1 617.5 4.1 619 4.5C618.9 4 619.6 3.9 620.8 4C622.1 4.4 625.2 4 625.5 4.8C627.2 4.7 627.6 4.3 628.4 4.8C628.7 5 629.1 4.5 629 4.5H631.9C632.3 4.5 632 4.2 632.5 4.5C633 4.8 634.7 4.2 634.8 4.2C635.7 4.2 635.4 4.5 636 4.2H637.2C637.4 4.2 637.5 4.2 637.7 4.1C637.8 4 637.8 4 637.9 4H638.8L639 4.1H639.3C639.4 4.1 639.5 4.1 639.6 4.2H640.3V0H0Z" fill="black"/>
</g>
<defs>
<clipPath id="clip0_168_583">
<rect width="181.328" height="4" fill="white"/>
</clipPath>
</defs>
</svg>
