<svg width="28" height="26" viewBox="0 0 28 26" fill="none" xmlns="http://www.w3.org/2000/svg">
<path fill-rule="evenodd" clip-rule="evenodd" d="M14.4581 0C15.459 0 16.4319 0.368901 17.1295 1.01009C17.8256 1.65504 18.21 2.53965 18.1807 3.4368C18.1835 3.63882 18.2576 3.87221 18.3918 4.07673C18.614 4.41552 18.9649 4.65393 19.3815 4.7518C19.798 4.84465 20.2342 4.79446 20.6046 4.59746C22.3939 3.68023 24.6711 4.22981 25.693 5.82337L26.5638 7.17726C26.5862 7.21365 26.6058 7.24878 26.6226 7.28517C27.548 8.85488 26.9301 10.8311 25.2107 11.7333C24.9605 11.8626 24.7578 12.0432 24.618 12.2616C24.4013 12.5991 24.3412 13.0006 24.4502 13.3695C24.5621 13.746 24.8291 14.0584 25.2051 14.2516C26.0536 14.6895 26.6869 15.4273 26.9399 16.2793C27.1929 17.1301 27.0545 18.0536 26.5611 18.8152L25.6328 20.203C24.611 21.779 22.3338 22.3248 20.5627 21.4063C20.3264 21.2846 20.0539 21.2181 19.7827 21.2118H19.7743C19.3703 21.2118 18.9551 21.3662 18.6532 21.6359C18.347 21.9107 18.1793 22.2771 18.1821 22.6661C18.1723 24.5093 16.5018 26 14.4581 26H12.7065C10.653 26 8.98254 24.5018 8.98254 22.6586C8.97974 22.4314 8.90705 22.1956 8.77146 21.991C8.55199 21.6472 8.19692 21.4013 7.78734 21.3034C7.38055 21.2055 6.93463 21.2595 6.56838 21.4502C5.6905 21.8894 4.65746 21.996 3.71248 21.7576C2.7689 21.518 1.95393 20.9358 1.47585 20.1641L0.602168 18.8127C-0.419692 17.2217 0.188391 15.1827 1.95812 14.2642C2.45997 14.0044 2.7717 13.5201 2.7717 13.0006C2.7717 12.4812 2.45997 11.9956 1.95812 11.7358C0.186994 10.8123 -0.419692 8.7683 0.60077 7.17726L1.54854 5.78071C2.55642 4.20723 4.83499 3.65262 6.61171 4.5686C6.85355 4.69784 7.11635 4.76309 7.38335 4.7656C8.25424 4.7656 8.98254 4.12065 8.99652 3.32764C8.99093 2.45307 9.37535 1.61363 10.0757 0.979972C10.7788 0.34757 11.7126 0 12.7065 0H14.4581ZM14.4581 1.88215H12.7065C12.2732 1.88215 11.8678 2.03398 11.5617 2.30751C11.2569 2.58231 11.0906 2.94744 11.0934 3.33642C11.064 5.17089 9.39352 6.64775 7.37077 6.64775C6.72215 6.64148 6.09729 6.48463 5.5549 6.19352C4.79305 5.80455 3.79775 6.04421 3.35182 6.7406L2.40545 8.13716C1.9721 8.81222 2.2377 9.70436 3.00934 10.1071C4.15421 10.7019 4.86854 11.8111 4.86854 13.0006C4.86854 14.1901 4.15422 15.2981 3.00654 15.8941C2.2391 16.2931 1.9735 17.1803 2.41803 17.8704L3.3001 19.2356C3.51817 19.5881 3.87464 19.8429 4.28701 19.947C4.698 20.0499 5.15091 20.006 5.52834 19.8178C6.08331 19.5254 6.72913 19.3736 7.37776 19.3736C7.69787 19.3736 8.01799 19.41 8.33112 19.4853C9.2761 19.7136 10.0967 20.2808 10.5831 21.0424C10.8991 21.5205 11.0738 22.0789 11.0794 22.6485C11.0794 23.4641 11.8091 24.1179 12.7065 24.1179H14.4581C15.3513 24.1179 16.081 23.4679 16.0852 22.6661C16.0796 21.7802 16.4655 20.9383 17.1714 20.3046C17.8676 19.6797 18.8405 19.3046 19.8134 19.3297C20.4509 19.3435 21.0645 19.4978 21.6055 19.7739C22.3841 20.1741 23.378 19.9357 23.8282 19.2456L24.7564 17.8566C24.9633 17.5366 25.0234 17.1351 24.9129 16.7649C24.8039 16.3948 24.5299 16.0735 24.1609 15.8841C23.297 15.4374 22.6805 14.7171 22.4247 13.8539C22.1717 13.0069 22.3101 12.0821 22.8035 11.3205C23.125 10.8186 23.5961 10.3957 24.1609 10.1046C24.9185 9.70687 25.1841 8.81724 24.7438 8.12461C24.7256 8.097 24.7088 8.06814 24.6949 8.03803L23.8757 6.76319C23.4298 6.06679 22.4373 5.82713 21.6586 6.22489C20.8171 6.67159 19.8162 6.79958 18.8545 6.57246C17.8941 6.34911 17.0889 5.80329 16.5871 5.03286C16.2656 4.55103 16.0908 3.99015 16.0852 3.41924C16.0978 2.99011 15.9301 2.60489 15.6253 2.32257C15.322 2.0415 14.8956 1.88215 14.4581 1.88215ZM13.5885 8.75086C16.1983 8.75086 18.3217 10.6581 18.3217 13.0008C18.3217 15.3434 16.1983 17.2481 13.5885 17.2481C10.9786 17.2481 8.85519 15.3434 8.85519 13.0008C8.85519 10.6581 10.9786 8.75086 13.5885 8.75086ZM13.5885 10.633C12.1346 10.633 10.952 11.6958 10.952 13.0008C10.952 14.3057 12.1346 15.366 13.5885 15.366C15.0423 15.366 16.2249 14.3057 16.2249 13.0008C16.2249 11.6958 15.0423 10.633 13.5885 10.633Z" fill="#28A263"/>
</svg>
