<svg width="45" height="45" viewBox="0 0 45 45" fill="none" xmlns="http://www.w3.org/2000/svg">
<g clip-path="url(#clip0_127_353)">
<path d="M34.7033 14.2306C34.4064 13.9429 33.9897 13.8122 33.582 13.879C33.1735 13.9456 32.8208 14.2013 32.6313 14.5682C31.9796 15.8304 31.1518 16.9903 30.1779 18.0157C30.275 17.275 30.3238 16.5299 30.3238 15.7827C30.3238 14.3491 30.1311 12.8739 29.7508 11.3974C28.5005 6.54784 25.222 2.4466 20.7561 0.145382C20.3673 -0.0549006 19.904 -0.0478685 19.5215 0.164134C19.1389 0.376224 18.8884 0.76507 18.8541 1.20001C18.5059 5.60711 16.229 9.61658 12.6036 12.203C12.5556 12.2375 12.508 12.2724 12.4603 12.3071C12.3617 12.379 12.2687 12.4471 12.1818 12.5042C12.1682 12.5133 12.1547 12.5225 12.1414 12.5319C9.86134 14.1595 7.97998 16.329 6.70051 18.8066C5.40041 21.3268 4.74121 24.0311 4.74121 26.8444C4.74121 28.2775 4.93392 29.7528 5.31402 31.2295C7.31991 39.0131 14.3459 44.4493 22.3999 44.4493C32.1364 44.4493 40.0575 36.5517 40.0575 26.8444C40.0575 22.0574 38.1561 17.5777 34.7033 14.2306V14.2306Z" fill="#28A263"/>
<ellipse cx="21.7236" cy="26.9391" rx="5.40423" ry="5.38781" fill="white"/>
</g>
<defs>
<clipPath id="clip0_127_353">
<rect width="44.5849" height="44.4494" fill="white" transform="translate(0.106445)"/>
</clipPath>
</defs>
</svg>
