<svg width="28" height="29" viewBox="0 0 28 29" fill="none" xmlns="http://www.w3.org/2000/svg">
<g clip-path="url(#clip0_133_1117)">
<path fill-rule="evenodd" clip-rule="evenodd" d="M24.6381 5.52909C25.819 5.84521 26.7472 6.77325 27.0632 7.95417C27.6345 10.0925 27.6368 14.5565 27.6368 14.5565C27.6368 14.5565 27.6368 19.0206 27.0632 21.1589C26.7472 22.3398 25.819 23.2678 24.6381 23.5839C22.4999 24.1575 13.9217 24.1575 13.9217 24.1575C13.9217 24.1575 5.3437 24.1575 3.20538 23.5839C2.02447 23.2678 1.09643 22.3398 0.780315 21.1589C0.206787 19.0206 0.206787 14.5565 0.206787 14.5565C0.206787 14.5565 0.206787 10.0925 0.780315 7.95417C1.09643 6.77325 2.02447 5.84521 3.20538 5.52909C5.3437 4.95557 13.9217 4.95557 13.9217 4.95557C13.9217 4.95557 22.4999 4.95557 24.6381 5.52909ZM18.3024 14.5569L11.1762 18.6709V10.4428L18.3024 14.5569Z" fill="#FF0000"/>
<path d="M11.1762 18.6709L18.3024 14.5569L11.1762 10.4428V18.6709Z" fill="white"/>
</g>
<defs>
<clipPath id="clip0_133_1117">
<rect width="27.4286" height="27.4286" fill="white" transform="translate(0.20752 0.842285)"/>
</clipPath>
</defs>
</svg>
