<svg width="182" height="4" viewBox="0 0 182 4" fill="none" xmlns="http://www.w3.org/2000/svg">
<g clip-path="url(#clip0_168_590)">
<path d="M640.328 0V3C635.328 3 635.328 1 630.328 1C625.328 1 625.328 3 620.328 3C615.328 3 615.328 1 610.328 1C605.328 1 605.328 3 600.328 3C595.328 3 595.328 1 590.328 1C585.328 1 585.328 3 580.328 3C575.328 3 575.328 1 570.328 1C565.328 1 565.328 3 560.328 3C555.328 3 555.328 1 550.328 1C545.328 1 545.328 3 540.328 3C535.228 3 535.228 1 530.328 1C525.328 1 525.328 3 520.328 3H520.228C515.228 3 515.228 1 510.328 1C505.328 1 505.328 3 500.328 3H500.228C495.228 3 495.228 1 490.328 1C485.328 1 485.328 3 480.328 3H480.228C475.228 3 475.228 1 470.328 1C465.328 1 465.328 3 460.328 3H460.228C455.228 3 455.228 1 450.328 1C445.328 1 445.328 3 440.328 3H440.228C435.228 3 435.228 1 430.328 1C425.328 1 425.328 3 420.328 3H420.228C415.228 3 415.228 1 410.328 1C405.328 1 405.328 3 400.328 3H400.228C395.228 3 395.228 1 390.328 1C385.328 1 385.328 3 380.328 3H380.228C375.228 3 375.228 1 370.328 1C365.328 1 365.328 3 360.328 3H360.228C355.228 3 355.228 1 350.328 1C345.328 1 345.328 3 340.328 3H340.228C335.228 3 335.228 1 330.328 1C325.328 1 325.328 3 320.328 3H320.228C315.228 3 315.228 1 310.328 1C305.328 1 305.328 3 300.328 3H300.228C295.228 3 295.228 1 290.328 1C285.328 1 285.328 3 280.328 3H280.228C275.228 3 275.228 1 270.328 1C265.328 1 265.328 3 260.328 3H260.228C255.228 3 255.228 1 250.328 1H250.228C245.228 1 245.228 3 240.228 3C235.228 3 235.228 1 230.228 1C225.228 1 225.228 3 220.228 3C215.228 3 215.228 1 210.228 1C205.228 1 205.228 3 200.228 3C195.228 3 195.228 1 190.228 1C185.228 1 185.228 3 180.228 3C175.228 3 175.228 1 170.228 1C165.228 1 165.228 3 160.228 3C155.228 3 155.228 1 150.228 1C145.228 1 145.228 3 140.228 3C135.228 3 135.228 1 130.228 1C125.228 1 125.228 3 120.228 3C115.228 3 115.228 1 110.228 1C105.228 1 105.228 3 100.228 3C95.2281 3 95.2281 1 90.2281 1C85.2281 1 85.2281 3 80.2281 3C75.2281 3 75.2281 1 70.2281 1C65.2281 1 65.2281 3 60.2281 3C55.2281 3 55.2281 1 50.2281 1C45.2281 1 45.2281 3 40.2281 3C35.2281 3 35.2281 1 30.2281 1C25.2281 1 25.2281 3 20.2281 3C15.2281 3 15.2281 1 10.2281 1C5.22812 1 5.32812 3 0.328125 3V0H640.328Z" fill="black"/>
</g>
<defs>
<clipPath id="clip0_168_590">
<rect width="181.328" height="4" fill="white" transform="translate(0.328125)"/>
</clipPath>
</defs>
</svg>
