<svg width="182" height="4" viewBox="0 0 182 4" fill="none" xmlns="http://www.w3.org/2000/svg">
<g clip-path="url(#clip0_168_587)">
<path d="M0.328125 3V0C5.32812 0 5.32812 2 10.3281 2C15.3281 2 15.3281 0 20.3281 0C25.3281 0 25.3281 2 30.3281 2C35.3281 2 35.3281 0 40.3281 0C45.3281 0 45.3281 2 50.3281 2C55.3281 2 55.3281 0 60.3281 0C65.3281 0 65.3281 2 70.3281 2C75.3281 2 75.3281 0 80.3281 0C85.3281 0 85.3281 2 90.3281 2C95.3281 2 95.3281 0 100.328 0C105.428 0 105.428 2 110.328 2C115.328 2 115.328 0 120.328 0H120.428C125.428 0 125.428 2 130.328 2C135.328 2 135.328 0 140.328 0H140.428C145.428 0 145.428 2 150.328 2C155.328 2 155.328 0 160.328 0H160.428C165.428 0 165.428 2 170.328 2C175.328 2 175.328 0 180.328 0H180.428C185.428 0 185.428 2 190.328 2C195.328 2 195.328 0 200.328 0H200.428C205.428 0 205.428 2 210.328 2C215.328 2 215.328 0 220.328 0H220.428C225.428 0 225.428 2 230.328 2C235.328 2 235.328 0 240.328 0H240.428C245.428 0 245.428 2 250.328 2C255.328 2 255.328 0 260.328 0H260.428C265.428 0 265.428 2 270.328 2C275.328 2 275.328 0 280.328 0H280.428C285.428 0 285.428 2 290.328 2C295.328 2 295.328 0 300.328 0H300.428C305.428 0 305.428 2 310.328 2C315.328 2 315.328 0 320.328 0H320.428C325.428 0 325.428 2 330.328 2C335.328 2 335.328 0 340.328 0H340.428C345.428 0 345.428 2 350.328 2C355.328 2 355.328 0 360.328 0H360.428C365.428 0 365.428 2 370.328 2C375.328 2 375.328 0 380.328 0H380.428C385.428 0 385.428 2 390.328 2H390.428C395.428 2 395.428 0 400.428 0C405.428 0 405.428 2 410.428 2C415.428 2 415.428 0 420.428 0C425.428 0 425.428 2 430.428 2C435.428 2 435.428 0 440.428 0C445.428 0 445.428 2 450.428 2C455.428 2 455.428 0 460.428 0C465.428 0 465.428 2 470.428 2C475.428 2 475.428 0 480.428 0C485.428 0 485.428 2 490.428 2C495.428 2 495.428 0 500.428 0C505.428 0 505.428 2 510.428 2C515.428 2 515.428 0 520.428 0C525.428 0 525.428 2 530.428 2C535.428 2 535.428 0 540.428 0C545.428 0 545.428 2 550.428 2C555.428 2 555.428 0 560.428 0C565.428 0 565.428 2 570.428 2C575.428 2 575.428 0 580.428 0C585.428 0 585.428 2 590.428 2C595.428 2 595.428 0 600.428 0C605.428 0 605.428 2 610.428 2C615.428 2 615.428 0 620.428 0C625.428 0 625.428 2 630.428 2C635.428 2 635.428 0 640.428 0V3H0.328125Z" fill="black"/>
</g>
<defs>
<clipPath id="clip0_168_587">
<rect width="181.328" height="4" fill="white" transform="translate(0.328125)"/>
</clipPath>
</defs>
</svg>
